<svg width="19" height="20" viewBox="0 0 19 20" fill="none" xmlns="http://www.w3.org/2000/svg">
<path d="M9.49996 6.87604C7.77964 6.87604 6.37574 8.27994 6.37574 10.0003C6.37574 11.7206 7.77964 13.1245 9.49996 13.1245C11.2203 13.1245 12.6242 11.7206 12.6242 10.0003C12.6242 8.27994 11.2203 6.87604 9.49996 6.87604ZM18.8703 10.0003C18.8703 8.70651 18.882 7.42448 18.8093 6.13307C18.7367 4.63307 18.3945 3.30182 17.2976 2.20495C16.1984 1.10573 14.8695 0.765883 13.3695 0.693226C12.0757 0.62057 10.7937 0.632289 9.5023 0.632289C8.20855 0.632289 6.92652 0.62057 5.63511 0.693226C4.13511 0.765883 2.80386 1.10807 1.70699 2.20495C0.607771 3.30416 0.267927 4.63307 0.195271 6.13307C0.122615 7.42682 0.134334 8.70885 0.134334 10.0003C0.134334 11.2917 0.122615 12.576 0.195271 13.8674C0.267927 15.3674 0.610115 16.6987 1.70699 17.7956C2.80621 18.8948 4.13511 19.2346 5.63511 19.3073C6.92886 19.3799 8.21089 19.3682 9.5023 19.3682C10.7961 19.3682 12.0781 19.3799 13.3695 19.3073C14.8695 19.2346 16.2007 18.8924 17.2976 17.7956C18.3968 16.6964 18.7367 15.3674 18.8093 13.8674C18.8843 12.576 18.8703 11.294 18.8703 10.0003ZM9.49996 14.8073C6.8398 14.8073 4.69293 12.6604 4.69293 10.0003C4.69293 7.3401 6.8398 5.19323 9.49996 5.19323C12.1601 5.19323 14.307 7.3401 14.307 10.0003C14.307 12.6604 12.1601 14.8073 9.49996 14.8073ZM14.5039 6.11901C13.8828 6.11901 13.3812 5.61744 13.3812 4.99635C13.3812 4.37526 13.8828 3.8737 14.5039 3.8737C15.125 3.8737 15.6265 4.37526 15.6265 4.99635C15.6267 5.14383 15.5978 5.2899 15.5414 5.42619C15.4851 5.56248 15.4024 5.68632 15.2981 5.7906C15.1938 5.89489 15.07 5.97757 14.9337 6.03393C14.7974 6.09028 14.6513 6.11919 14.5039 6.11901Z" fill="#68666B"/>
</svg>
