<svg width="19" height="20" viewBox="0 0 19 20" fill="none" xmlns="http://www.w3.org/2000/svg">
<path d="M17.09 4.69024C16.0931 4.47104 15.1914 3.94168 14.5141 3.17814C13.8368 2.41459 13.4187 1.45612 13.32 0.440244V0.000244141H9.86998V13.6702C9.87068 14.2768 9.68052 14.8682 9.32642 15.3607C8.97233 15.8532 8.47226 16.2218 7.89705 16.4142C7.32183 16.6067 6.70064 16.6133 6.12146 16.4331C5.54228 16.2529 5.03448 15.8951 4.66998 15.4102C4.34343 14.9811 4.14347 14.4691 4.09271 13.9322C4.04196 13.3954 4.14243 12.855 4.38276 12.3722C4.6231 11.8895 4.99371 11.4836 5.4527 11.2005C5.91168 10.9174 6.44072 10.7684 6.97998 10.7702C7.27822 10.7685 7.57498 10.8124 7.85998 10.9002V7.40024C7.52832 7.35917 7.19409 7.34246 6.85998 7.35025C5.62929 7.38313 4.4349 7.77418 3.42307 8.47551C2.41123 9.17685 1.62587 10.158 1.16316 11.2989C0.700447 12.4398 0.580463 13.6908 0.817902 14.8988C1.05534 16.1068 1.63989 17.2194 2.49998 18.1002C3.38147 18.9965 4.50948 19.6104 5.74068 19.864C6.97188 20.1177 8.2507 19.9996 9.41464 19.5248C10.5786 19.05 11.5751 18.24 12.2776 17.1975C12.9801 16.1551 13.3569 14.9273 13.36 13.6702V6.67025C14.7514 7.66419 16.42 8.19589 18.13 8.19024V4.79024C17.7941 4.79163 17.459 4.75812 17.13 4.69024H17.09Z" fill="#68666B"/>
</svg>
