<svg width="25" height="24" viewBox="0 0 25 24" fill="none" xmlns="http://www.w3.org/2000/svg">
<g clip-path="url(#clip0_128:985)">
<path d="M24.143 4.93732C23.308 5.30732 22.411 5.55732 21.468 5.67032C22.441 5.08811 23.1689 4.17179 23.516 3.09232C22.6018 3.63531 21.6013 4.01752 20.558 4.22232C19.8564 3.47319 18.927 2.97665 17.9143 2.8098C16.9016 2.64294 15.8621 2.81511 14.9572 3.29957C14.0524 3.78404 13.3328 4.55368 12.9101 5.48903C12.4875 6.42437 12.3855 7.47307 12.62 8.47232C10.7677 8.37932 8.95561 7.89787 7.3014 7.05923C5.6472 6.22058 4.18782 5.04348 3.01798 3.60432C2.61798 4.29432 2.38798 5.09432 2.38798 5.94632C2.38753 6.71332 2.57641 7.46856 2.93786 8.14505C3.29931 8.82154 3.82214 9.39836 4.45998 9.82432C3.72026 9.80078 2.99685 9.60091 2.34998 9.24132V9.30132C2.34991 10.3771 2.72201 11.4197 3.40316 12.2523C4.08431 13.0849 5.03255 13.6563 6.08698 13.8693C5.40076 14.055 4.68132 14.0824 3.98298 13.9493C4.28048 14.8749 4.85998 15.6843 5.64035 16.2642C6.42072 16.8441 7.3629 17.1655 8.33498 17.1833C6.68481 18.4787 4.64687 19.1814 2.54898 19.1783C2.17736 19.1784 1.80606 19.1567 1.43698 19.1133C3.56646 20.4825 6.04532 21.2091 8.57698 21.2063C17.147 21.2063 21.832 14.1083 21.832 7.95232C21.832 7.75232 21.827 7.55032 21.818 7.35032C22.7293 6.6913 23.5159 5.87522 24.141 4.94032L24.143 4.93732Z" fill="#68666B"/>
</g>
<defs>
<clipPath id="clip0_128:985">
<rect width="24" height="24" fill="white" transform="translate(0.5 0.000244141)"/>
</clipPath>
</defs>
</svg>
