<svg width="25" height="24" viewBox="0 0 25 24" fill="none" xmlns="http://www.w3.org/2000/svg">
<g clip-path="url(#clip0_128:981)">
<path d="M24 6.50732C23.8641 6.02255 23.5994 5.58367 23.234 5.23732C22.8583 4.88032 22.3978 4.62496 21.896 4.49532C20.018 4.00032 12.494 4.00032 12.494 4.00032C9.35735 3.96463 6.22144 4.12159 3.10401 4.47032C2.60221 4.60953 2.14258 4.87061 1.76601 5.23032C1.39601 5.58632 1.12801 6.02532 0.988015 6.50632C0.651707 8.31806 0.488306 10.1577 0.500014 12.0003C0.488014 13.8413 0.651014 15.6803 0.988015 17.4943C1.12501 17.9733 1.39201 18.4103 1.76301 18.7633C2.13401 19.1163 2.59601 19.3713 3.10401 19.5063C5.00702 20.0003 12.494 20.0003 12.494 20.0003C15.6347 20.0361 18.7746 19.8791 21.896 19.5303C22.3978 19.4007 22.8583 19.1453 23.234 18.7883C23.604 18.4353 23.867 17.9963 23.999 17.5183C24.3441 15.7073 24.5119 13.8669 24.5 12.0233C24.526 10.1719 24.3584 8.32288 24 6.50632V6.50732ZM10.102 15.4243V8.57732L16.362 12.0013L10.102 15.4243Z" fill="#68666B"/>
</g>
<defs>
<clipPath id="clip0_128:981">
<rect width="24" height="24" fill="white" transform="translate(0.5 0.000244141)"/>
</clipPath>
</defs>
</svg>
